<svg width="16" height="16" viewBox="0 0 16 16" fill="none" xmlns="http://www.w3.org/2000/svg">
<path d="M10.6666 2.66667C11.2866 2.66667 11.5966 2.66667 11.8509 2.73482C12.5411 2.91975 13.0802 3.45885 13.2651 4.14903C13.3333 4.40336 13.3333 4.71335 13.3333 5.33334V11.4667C13.3333 12.5868 13.3333 13.1468 13.1153 13.5746C12.9236 13.951 12.6176 14.2569 12.2413 14.4487C11.8135 14.6667 11.2534 14.6667 10.1333 14.6667H5.86663C4.74652 14.6667 4.18647 14.6667 3.75865 14.4487C3.38232 14.2569 3.07636 13.951 2.88461 13.5746C2.66663 13.1468 2.66663 12.5868 2.66663 11.4667V5.33334C2.66663 4.71335 2.66663 4.40336 2.73477 4.14903C2.91971 3.45885 3.4588 2.91975 4.14899 2.73482C4.40332 2.66667 4.71331 2.66667 5.33329 2.66667M5.99996 10L7.33329 11.3333L10.3333 8.33334M6.39996 4H9.59996C9.97333 4 10.16 4 10.3026 3.92734C10.4281 3.86342 10.53 3.76144 10.594 3.636C10.6666 3.49339 10.6666 3.3067 10.6666 2.93334V2.4C10.6666 2.02663 10.6666 1.83995 10.594 1.69734C10.53 1.5719 10.4281 1.46991 10.3026 1.406C10.16 1.33334 9.97333 1.33334 9.59996 1.33334H6.39996C6.02659 1.33334 5.83991 1.33334 5.6973 1.406C5.57186 1.46991 5.46987 1.5719 5.40596 1.69734C5.33329 1.83995 5.33329 2.02663 5.33329 2.4V2.93334C5.33329 3.3067 5.33329 3.49339 5.40596 3.636C5.46987 3.76144 5.57186 3.86342 5.6973 3.92734C5.83991 4 6.02659 4 6.39996 4Z" stroke="#4A5565" stroke-width="1.5" stroke-linecap="round" stroke-linejoin="round"/>
</svg>
