<svg width="16" height="16" viewBox="0 0 16 16" fill="none" xmlns="http://www.w3.org/2000/svg">
<path d="M14.6667 6.66668H1.33337M7.33337 9.33334H4.00004M1.33337 5.46668L1.33337 10.5333C1.33337 11.2801 1.33337 11.6534 1.4787 11.9387C1.60653 12.1895 1.8105 12.3935 2.06139 12.5214C2.3466 12.6667 2.71997 12.6667 3.46671 12.6667L12.5334 12.6667C13.2801 12.6667 13.6535 12.6667 13.9387 12.5214C14.1896 12.3935 14.3936 12.1895 14.5214 11.9387C14.6667 11.6534 14.6667 11.2801 14.6667 10.5333V5.46668C14.6667 4.71994 14.6667 4.34657 14.5214 4.06136C14.3936 3.81047 14.1896 3.6065 13.9387 3.47867C13.6535 3.33334 13.2801 3.33334 12.5334 3.33334L3.46671 3.33334C2.71997 3.33334 2.3466 3.33334 2.06139 3.47867C1.8105 3.6065 1.60653 3.81047 1.4787 4.06136C1.33337 4.34657 1.33337 4.71994 1.33337 5.46668Z" stroke="#4A5565" stroke-width="1.5" stroke-linecap="round" stroke-linejoin="round"/>
</svg>
