<svg width="16" height="16" viewBox="0 0 16 16" fill="none" xmlns="http://www.w3.org/2000/svg">
<g clip-path="url(#clip0_268_505)">
<path d="M14.1403 10.5933C13.7162 11.5963 13.0528 12.4801 12.2082 13.1675C11.3636 13.8549 10.3635 14.325 9.29527 14.5365C8.22705 14.7481 7.12326 14.6948 6.08041 14.3812C5.03756 14.0676 4.08739 13.5034 3.31299 12.7378C2.53859 11.9722 1.96352 11.0285 1.63807 9.98931C1.31261 8.9501 1.24668 7.847 1.44604 6.77643C1.6454 5.70586 2.10397 4.70042 2.78167 3.84803C3.45937 2.99563 4.33556 2.32222 5.33364 1.88667M14.1595 5.44878C14.4264 6.09309 14.5901 6.77425 14.6457 7.46723C14.6594 7.63843 14.6662 7.72403 14.6322 7.80114C14.6039 7.86555 14.5476 7.9265 14.4857 7.95996C14.4115 8.00001 14.3189 8.00001 14.1336 8.00001H8.53364C8.34696 8.00001 8.25362 8.00001 8.18231 7.96367C8.11959 7.93172 8.0686 7.88072 8.03664 7.818C8.00031 7.7467 8.00031 7.65336 8.00031 7.46667V1.86667C8.00031 1.68143 8.00031 1.58881 8.04036 1.51466C8.07381 1.45272 8.13476 1.39646 8.19917 1.36807C8.27628 1.33407 8.36188 1.34094 8.53308 1.35466C9.22607 1.41022 9.90722 1.57393 10.5515 1.84081C11.3604 2.17584 12.0953 2.6669 12.7144 3.28596C13.3334 3.90502 13.8245 4.63995 14.1595 5.44878Z" stroke="#4A5565" stroke-width="1.5" stroke-linecap="round" stroke-linejoin="round"/>
</g>
<defs>
<clipPath id="clip0_268_505">
<rect width="16" height="16" fill="white"/>
</clipPath>
</defs>
</svg>
