<svg width="65" height="40" viewBox="0 0 65 40" fill="none" xmlns="http://www.w3.org/2000/svg">
<g clip-path="url(#clip0_18_351)">
<path d="M29.0003 0C30.6503 0 32.3003 0 34.0003 0C36.1236 5.87996 37.5277 11.9329 39.0003 18C39.9903 17.67 40.9803 17.34 42.0003 17C43.0335 14.2083 43.0335 14.2083 43.6878 10.9375C44.0649 9.28041 44.0649 9.28041 44.4495 7.58984C44.6313 6.7352 44.8131 5.88055 45.0003 5C46.3203 5.33 47.6403 5.66 49.0003 6C49.1821 6.78246 49.3638 7.56492 49.5511 8.37109C49.8025 9.38301 50.0538 10.3949 50.3128 11.4375C50.5565 12.4468 50.8001 13.4562 51.0511 14.4961C51.3643 15.3224 51.6776 16.1487 52.0003 17C52.9903 17.33 53.9803 17.66 55.0003 18C55.6603 15.36 56.3203 12.72 57.0003 10C58.3203 10.33 59.6403 10.66 61.0003 11C61.2891 12.1344 61.5778 13.2687 61.8753 14.4375C62.2466 15.6131 62.6178 16.7888 63.0003 18C63.6603 18.33 64.3203 18.66 65.0003 19C65.0003 19.66 65.0003 20.32 65.0003 21C64.5466 21.4125 64.0928 21.825 63.6253 22.25C61.4605 24.5814 60.8733 26.9783 60.0003 30C59.0103 29.67 58.0203 29.34 57.0003 29C56.3337 26.6667 55.667 24.3333 55.0003 22C54.0103 21.67 53.0203 21.34 52.0003 21C51.0103 25.29 50.0203 29.58 49.0003 34C47.6803 34 46.3603 34 45.0003 34C44.0103 29.71 43.0203 25.42 42.0003 21C38.0182 22.4693 38.0182 22.4693 37.179 24.7876C36.9591 25.8402 36.9591 25.8402 36.7347 26.9141C36.5671 27.6746 36.3995 28.4352 36.2269 29.2188C36.0696 30.0128 35.9124 30.8069 35.7503 31.625C35.5776 32.4268 35.4049 33.2286 35.2269 34.0547C34.8029 36.0333 34.3996 38.0163 34.0003 40C32.3503 40 30.7003 40 29.0003 40C27.3535 33.6924 25.7372 27.4847 25.0003 21C23.6803 21 22.3603 21 21.0003 21C20.8792 21.7593 20.758 22.5185 20.6331 23.3008C20.4656 24.2946 20.298 25.2885 20.1253 26.3125C19.9629 27.2986 19.8005 28.2848 19.6331 29.3008C19.0003 32 19.0003 32 17.0003 35C15.5153 34.505 15.5153 34.505 14.0003 34C13.0511 31.2773 13.0511 31.2773 12.3128 27.9375C12.0615 26.8328 11.8101 25.728 11.5511 24.5898C11.3693 23.7352 11.1876 22.8805 11.0003 22C10.0103 22 9.02032 22 8.00032 22C7.34032 24.64 6.68032 27.28 6.00032 30C5.01032 30 4.02032 30 3.00032 30C2.49199 28.7534 1.99401 27.5025 1.50032 26.25C1.22189 25.5539 0.943449 24.8578 0.656574 24.1406C-0.528884 20.2738 0.0515699 17.3719 1.50032 13.75C1.77876 13.0436 2.0572 12.3372 2.34407 11.6094C2.66892 10.8127 2.66892 10.8127 3.00032 10C3.99032 10 4.98032 10 6.00032 10C6.66032 12.64 7.32032 15.28 8.00032 18C8.99032 18 9.98032 18 11.0003 18C11.9903 14.04 12.9803 10.08 14.0003 6C15.3203 5.67 16.6403 5.34 18.0003 5C18.9903 8.96 19.9803 12.92 21.0003 17C22.3203 17 23.6403 17 25.0003 17C26.3203 11.39 27.6403 5.78 29.0003 0Z" fill="black"/>
</g>
<defs>
<clipPath id="clip0_18_351">
<rect width="65" height="40" fill="white"/>
</clipPath>
</defs>
</svg>
