<svg xmlns="http://www.w3.org/2000/svg" viewBox="0 0 87.35 17.5">
		<defs>
			<style>
				.cls-1 {
					fill: #5ea7ea;
				}
			</style>
		</defs>
		<title>11Asset 1arch-logo</title>
		<g id="Layer_2" data-name="Layer 2">
			<g id="Layer_2-2" data-name="Layer 2">
				<path class="cls-1" d="M37.14,17.26l-3.48-5a6.42,6.42,0,0,1-.66,0H29.17v5H26V.24h7A9.42,9.42,0,0,1,36.86,1a5.6,5.6,0,0,1,2.52,2.09,5.85,5.85,0,0,1,.88,3.23,5.77,5.77,0,0,1-.94,3.31,5.57,5.57,0,0,1-2.69,2.07l3.91,5.59ZM36,3.79a4.85,4.85,0,0,0-3.14-.88H29.17V9.7h3.69A4.81,4.81,0,0,0,36,8.81,3.08,3.08,0,0,0,37.07,6.3,3,3,0,0,0,36,3.79Z" />
				<path class="cls-1" d="M52.39,16.37a8.33,8.33,0,0,1-3.26-3.12A8.66,8.66,0,0,1,48,8.75a8.6,8.6,0,0,1,1.19-4.5,8.42,8.42,0,0,1,3.27-3.12A9.58,9.58,0,0,1,57.07,0a9.7,9.7,0,0,1,3.82.73A7.79,7.79,0,0,1,63.8,2.84l-2,1.92a6,6,0,0,0-4.54-2,6.37,6.37,0,0,0-3.14.77,5.52,5.52,0,0,0-2.16,2.13,6.11,6.11,0,0,0-.78,3.09,6.11,6.11,0,0,0,.78,3.09A5.52,5.52,0,0,0,54.08,14a6.37,6.37,0,0,0,3.14.77,5.92,5.92,0,0,0,4.54-2l2,1.94a7.76,7.76,0,0,1-2.93,2.11A9.8,9.8,0,0,1,57,17.5,9.58,9.58,0,0,1,52.39,16.37Z" />
				<path class="cls-1" d="M87.35.24v17H84.19V10h-8.8v7.29H72.24V.24h3.16v7h8.8v-7Z" />
				<polygon class="cls-1" points="10.77 0.24 7.66 0.24 0 17.26 2.61 17.26 4.93 13.32 6 10.84 9.19 3.4 12.29 10.59 12.29 10.59 12.4 10.84 13.44 13.32 13.57 13.61 13.57 13.61 15.8 17.26 18.45 17.26 10.77 0.24" />
				<path class="cls-1" d="M2.61,17.26H0a10.18,10.18,0,0,1,9.19-5.95,10.18,10.18,0,0,1,9.19,5.95H15.8s-1.32-3.53-6.58-3.53C3.61,13.73,2.61,17.26,2.61,17.26Z" />
			</g>
		</g>
	</svg>