<svg width="205" height="40" viewBox="0 0 205 40" fill="none" xmlns="http://www.w3.org/2000/svg">
<g clip-path="url(#clip0_18_345)">
<path d="M29.0003 0C30.6503 0 32.3003 0 34.0003 0C36.1236 5.87996 37.5277 11.9329 39.0003 18C39.9903 17.67 40.9803 17.34 42.0003 17C43.0335 14.2083 43.0335 14.2083 43.6878 10.9375C44.0649 9.28041 44.0649 9.28041 44.4495 7.58984C44.6313 6.7352 44.8131 5.88055 45.0003 5C46.3203 5.33 47.6403 5.66 49.0003 6C49.1821 6.78246 49.3638 7.56492 49.5511 8.37109C49.8025 9.38301 50.0538 10.3949 50.3128 11.4375C50.5565 12.4468 50.8001 13.4562 51.0511 14.4961C51.3643 15.3224 51.6776 16.1487 52.0003 17C52.9903 17.33 53.9803 17.66 55.0003 18C55.6603 15.36 56.3203 12.72 57.0003 10C58.3203 10.33 59.6403 10.66 61.0003 11C61.2891 12.1344 61.5778 13.2687 61.8753 14.4375C62.2466 15.6131 62.6178 16.7888 63.0003 18C63.6603 18.33 64.3203 18.66 65.0003 19C65.0003 19.66 65.0003 20.32 65.0003 21C64.5466 21.4125 64.0928 21.825 63.6253 22.25C61.4605 24.5814 60.8733 26.9783 60.0003 30C59.0103 29.67 58.0203 29.34 57.0003 29C56.3337 26.6667 55.667 24.3333 55.0003 22C54.0103 21.67 53.0203 21.34 52.0003 21C51.0103 25.29 50.0203 29.58 49.0003 34C47.6803 34 46.3603 34 45.0003 34C44.0103 29.71 43.0203 25.42 42.0003 21C38.0182 22.4693 38.0182 22.4693 37.179 24.7876C36.9591 25.8402 36.9591 25.8402 36.7347 26.9141C36.5671 27.6746 36.3995 28.4352 36.2269 29.2188C36.0696 30.0128 35.9124 30.8069 35.7503 31.625C35.5776 32.4268 35.4049 33.2286 35.2269 34.0547C34.8029 36.0333 34.3996 38.0163 34.0003 40C32.3503 40 30.7003 40 29.0003 40C27.3535 33.6924 25.7372 27.4847 25.0003 21C23.6803 21 22.3603 21 21.0003 21C20.8792 21.7593 20.758 22.5185 20.6331 23.3008C20.4656 24.2946 20.298 25.2885 20.1253 26.3125C19.9629 27.2986 19.8005 28.2848 19.6331 29.3008C19.0003 32 19.0003 32 17.0003 35C15.5153 34.505 15.5153 34.505 14.0003 34C13.0511 31.2773 13.0511 31.2773 12.3128 27.9375C12.0615 26.8328 11.8101 25.728 11.5511 24.5898C11.3693 23.7352 11.1876 22.8805 11.0003 22C10.0103 22 9.02032 22 8.00032 22C7.34032 24.64 6.68032 27.28 6.00032 30C5.01032 30 4.02032 30 3.00032 30C2.49199 28.7534 1.99401 27.5025 1.50032 26.25C1.22189 25.5539 0.943449 24.8578 0.656574 24.1406C-0.528884 20.2738 0.0515699 17.3719 1.50032 13.75C1.77876 13.0436 2.0572 12.3372 2.34407 11.6094C2.66892 10.8127 2.66892 10.8127 3.00032 10C3.99032 10 4.98032 10 6.00032 10C6.66032 12.64 7.32032 15.28 8.00032 18C8.99032 18 9.98032 18 11.0003 18C11.9903 14.04 12.9803 10.08 14.0003 6C15.3203 5.67 16.6403 5.34 18.0003 5C18.9903 8.96 19.9803 12.92 21.0003 17C22.3203 17 23.6403 17 25.0003 17C26.3203 11.39 27.6403 5.78 29.0003 0Z" fill="black"/>
<path d="M145 9C148.3 9 151.6 9 155 9C155 13.62 155 18.24 155 23C159.95 23 164.9 23 170 23C170.33 23.99 170.66 24.98 171 26C173.97 20.39 176.94 14.78 180 9C184.95 9 189.9 9 195 9C196.672 12.2893 198.337 15.5812 200 18.875C200.477 19.8121 200.954 20.7493 201.445 21.7148C201.896 22.6107 202.348 23.5066 202.812 24.4297C203.231 25.2571 203.65 26.0845 204.082 26.937C205 29 205 29 205 31C201.04 31 197.08 31 193 31C192.505 30.01 192.505 30.01 192 29C189.414 28.5317 189.414 28.5317 186.438 28.375C184.92 28.2629 184.92 28.2629 183.371 28.1484C182.197 28.075 182.197 28.075 181 28C181 28.99 181 29.98 181 31C169.12 31 157.24 31 145 31C145 23.74 145 16.48 145 9ZM186 17C185.67 18.32 185.34 19.64 185 21C185.99 21 186.98 21 188 21C187.34 19.68 186.68 18.36 186 17Z" fill="black"/>
<path d="M74 9.00003C78.3969 8.86516 82.7896 8.76595 87.1875 8.68753C88.4334 8.64564 89.6793 8.60374 90.9629 8.56058C101.27 8.42241 101.27 8.42241 104.375 11.3438C106 14 106 14 105.812 16.8125C105.544 17.5344 105.276 18.2563 105 19C104.34 19 103.68 19 103 19C103 19.66 103 20.32 103 21C103.66 21 104.32 21 105 21C106.607 24.2145 106.057 27.4362 106 31C102.37 31 98.74 31 95 31C94.34 29.02 93.68 27.04 93 25C90.36 24.67 87.72 24.34 85 24C85 26.31 85 28.62 85 31C81.37 31 77.74 31 74 31C74 23.74 74 16.48 74 9.00003ZM85 16C85 16.66 85 17.32 85 18C87.97 18 90.94 18 94 18C94.33 17.34 94.66 16.68 95 16C91.7 16 88.4 16 85 16Z" fill="black"/>
<path d="M121.285 8.90234C123.857 8.9349 126.428 8.96745 129 9C129 13.62 129 18.24 129 23C133.95 23 138.9 23 144 23C144 25.64 144 28.28 144 31C139.854 31.0289 135.708 31.0468 131.562 31.0625C129.786 31.0751 129.786 31.0751 127.975 31.0879C126.85 31.0911 125.725 31.0943 124.566 31.0977C123.003 31.1055 123.003 31.1055 121.408 31.1135C119 31 119 31 118 30C117.901 28.5235 117.869 27.0423 117.867 25.5625C117.866 24.6679 117.865 23.7733 117.863 22.8516C117.869 21.44 117.869 21.44 117.875 20C117.871 19.059 117.867 18.118 117.863 17.1484C117.865 16.2538 117.866 15.3592 117.867 14.4375C117.869 13.1981 117.869 13.1981 117.871 11.9336C118.061 9.08792 118.432 9.02429 121.285 8.90234Z" fill="black"/>
<path d="M107 9C110.3 9 113.6 9 117 9C117 16.26 117 23.52 117 31C113.7 31 110.4 31 107 31C107 23.74 107 16.48 107 9Z" fill="black"/>
</g>
<defs>
<clipPath id="clip0_18_345">
<rect width="205" height="40" fill="white"/>
</clipPath>
</defs>
</svg>
